<?xml version="1.0" standalone="no"?>
<!DOCTYPE svg PUBLIC "-//W3C//DTD SVG 20010904//EN"
 "http://www.w3.org/TR/2001/REC-SVG-20010904/DTD/svg10.dtd">
<svg version="1.0" xmlns="http://www.w3.org/2000/svg"
 width="100.000000pt" height="100.000000pt" viewBox="0 0 100.000000 100.000000"
 preserveAspectRatio="xMidYMid meet">
<metadata>
Created by potrace 1.11, written by Peter Selinger 2001-2013
</metadata>
<g transform="translate(0.000000,100.000000) scale(0.100000,-0.100000)"
fill="#000000" stroke="none">
<path d="M443 905 l12 -24 7 22 c4 16 6 17 7 5 1 -10 6 -18 12 -18 6 0 8 7 5
16 -3 9 -6 18 -6 20 0 2 -11 4 -24 4 -22 0 -23 -2 -13 -25z"/>
<path d="M502 910 c0 -14 2 -19 5 -12 2 6 2 18 0 25 -3 6 -5 1 -5 -13z"/>
<path d="M527 910 c7 -26 19 -34 29 -19 4 8 3 9 -4 5 -8 -5 -12 0 -12 13 0 12
-4 21 -9 21 -5 0 -7 -9 -4 -20z"/>
<path d="M568 922 c8 -5 10 -16 6 -27 -5 -13 -4 -16 4 -11 19 11 14 46 -5 46
-13 0 -15 -2 -5 -8z"/>
<path d="M400 915 c0 -14 29 -35 35 -26 3 6 -4 15 -15 21 -11 6 -20 8 -20 5z"/>
<path d="M607 913 c-4 -3 -7 -16 -6 -27 0 -19 1 -19 10 3 10 24 8 36 -4 24z"/>
<path d="M360 893 c0 -15 -2 -16 -10 -3 -8 13 -10 13 -10 -2 0 -25 17 -31 30
-11 8 13 13 14 16 5 3 -6 10 -10 15 -6 10 6 -14 34 -30 34 -6 0 -11 -8 -11
-17z"/>
<path d="M657 893 c-10 -9 -9 -33 1 -33 4 0 8 9 9 20 2 21 0 24 -10 13z"/>
<path d="M685 873 c2 -10 4 -22 4 -26 1 -5 8 -1 18 8 14 14 14 18 2 26 -21 13
-28 11 -24 -8z"/>
<path d="M295 865 c5 -16 4 -18 -6 -7 -20 18 -28 15 -21 -10 4 -19 3 -21 -9
-11 -11 9 -20 8 -38 -1 -20 -11 -21 -14 -7 -19 11 -5 15 -3 10 5 -5 7 1 9 20
6 14 -3 29 -1 32 3 3 5 14 9 24 9 10 0 22 6 26 13 4 6 4 9 -1 5 -4 -4 -14 0
-22 10 -14 16 -14 16 -8 -3z"/>
<path d="M747 838 c-4 -16 -3 -18 6 -9 6 6 16 11 21 11 6 0 5 -5 -2 -12 -7 -7
-12 -16 -12 -21 0 -5 7 -2 15 7 19 19 19 23 -4 35 -15 9 -20 7 -24 -11z"/>
<path d="M797 813 c-4 -3 -7 -13 -7 -22 1 -13 3 -13 11 2 11 19 8 33 -4 20z"/>
<path d="M169 792 l-22 -19 22 -6 c19 -5 20 -3 9 11 -11 13 -11 15 4 9 18 -7
35 8 19 17 -5 3 -19 -2 -32 -12z"/>
<path d="M819 778 c-11 -8 -10 -9 5 -4 14 5 17 2 12 -10 -5 -14 -4 -15 9 -4
13 11 15 8 15 -20 0 -28 2 -31 15 -20 13 11 14 8 9 -18 -7 -33 4 -46 26 -31
13 7 13 9 -1 9 -12 0 -15 7 -11 25 3 17 -1 27 -12 31 -9 3 -16 12 -16 20 0 20
-33 35 -51 22z"/>
<path d="M147 740 c3 -11 7 -20 8 -20 1 0 5 9 8 20 3 12 0 20 -8 20 -8 0 -11
-8 -8 -20z"/>
<path d="M115 730 c-3 -5 -2 -10 4 -10 5 0 13 5 16 10 3 6 2 10 -4 10 -5 0
-13 -4 -16 -10z"/>
<path d="M108 691 c10 -6 9 -10 -7 -14 -24 -6 -29 -27 -6 -27 8 0 19 8 24 19
11 19 5 31 -13 31 -6 0 -5 -4 2 -9z"/>
<path d="M480 680 c0 -23 -25 -27 -34 -5 -8 23 -25 18 -36 -10 -11 -28 -28
-33 -36 -10 -10 25 -43 0 -37 -26 5 -19 3 -21 -17 -16 -31 8 -55 -10 -39 -29
16 -19 2 -36 -21 -24 -14 7 -20 6 -24 -7 -4 -9 -1 -20 5 -24 17 -10 5 -34 -17
-34 -10 0 -20 -8 -22 -17 -2 -11 3 -18 12 -18 23 0 20 -27 -4 -33 -26 -7 -26
-37 0 -37 13 0 20 -7 20 -20 0 -11 -7 -20 -15 -20 -24 0 -17 -20 10 -30 26
-10 33 -26 13 -32 -7 -3 -9 -12 -5 -22 5 -11 13 -15 26 -11 27 8 38 -14 33
-65 -4 -46 -4 -46 -43 -47 -28 -2 -39 2 -39 13 0 8 -7 17 -15 20 -8 4 -15 12
-15 19 0 22 -21 29 -38 12 -13 -13 -13 -19 -2 -31 7 -9 19 -16 26 -16 8 0 14
-9 14 -20 0 -11 6 -20 13 -21 81 -4 619 1 627 6 5 3 10 13 10 21 0 8 6 14 14
14 7 0 19 7 26 16 11 12 11 18 -2 31 -17 17 -38 10 -38 -12 0 -7 -7 -15 -15
-19 -8 -3 -15 -12 -15 -20 0 -11 -11 -15 -39 -13 -39 1 -39 1 -43 47 -5 50 6
73 32 65 11 -4 20 1 24 12 4 10 2 19 -3 21 -19 6 -12 32 8 32 24 0 36 29 16
36 -22 9 -18 34 5 34 12 0 20 7 20 16 0 9 -9 18 -20 21 -23 6 -27 28 -5 37 9
3 12 12 9 21 -4 9 -13 14 -21 11 -17 -7 -30 23 -14 33 6 4 9 15 5 24 -4 12
-13 15 -31 11 -22 -6 -24 -4 -21 22 3 26 0 29 -27 29 -25 0 -29 4 -27 21 3 25
-26 41 -34 19 -9 -22 -23 -18 -34 10 -10 27 -40 34 -40 10 0 -22 -31 -18 -37
5 -3 11 -14 20 -24 20 -12 0 -19 -7 -19 -20z m135 -59 c95 -42 145 -118 145
-221 0 -33 -2 -60 -3 -60 -2 0 -22 17 -45 39 -22 21 -62 47 -89 56 -81 29 -93
37 -93 62 0 19 -5 23 -29 23 -25 0 -30 -5 -33 -26 -3 -29 -10 -34 -81 -59 -27
-10 -67 -35 -89 -56 -23 -22 -43 -39 -45 -39 -1 0 -3 28 -3 63 0 179 192 294
365 218z m-145 -226 c0 -10 11 -15 35 -15 24 0 35 5 35 15 0 8 5 15 10 15 6 0
10 -7 10 -15 0 -8 8 -16 18 -16 16 -1 16 -2 0 -6 -10 -2 -18 -11 -18 -19 0 -8
8 -15 18 -15 16 -1 16 -2 0 -6 -10 -2 -18 -9 -18 -14 0 -5 8 -10 18 -10 16 -1
16 -2 0 -6 -13 -3 -18 -15 -18 -44 0 -21 -4 -39 -10 -39 -5 0 -10 18 -10 40 0
39 -1 40 -35 40 -34 0 -35 -1 -35 -40 0 -22 -4 -40 -10 -40 -5 0 -10 18 -10
40 0 31 -4 40 -17 41 -17 1 -17 2 0 6 9 2 17 9 17 14 0 5 -8 10 -17 10 -17 1
-17 2 0 6 9 2 17 11 17 19 0 8 -8 15 -17 15 -17 1 -17 2 0 6 9 2 17 11 17 19
0 8 5 14 10 14 6 0 10 -7 10 -15z m-30 -195 c0 -5 -18 -10 -40 -10 -22 0 -40
5 -40 10 0 6 18 10 40 10 22 0 40 -4 40 -10z m210 0 c0 -5 -18 -10 -40 -10
-22 0 -40 5 -40 10 0 6 18 10 40 10 22 0 40 -4 40 -10z"/>
<path d="M470 360 c0 -5 16 -10 35 -10 19 0 35 5 35 10 0 6 -16 10 -35 10 -19
0 -35 -4 -35 -10z"/>
<path d="M483 333 c-24 -9 -13 -18 22 -18 37 0 46 9 19 19 -18 7 -23 7 -41 -1z"/>
<path d="M910 650 c-8 -5 -13 -10 -10 -11 3 0 13 -2 22 -4 11 -2 15 2 11 11
-6 16 -4 16 -23 4z"/>
<path d="M81 624 c7 -9 5 -14 -8 -17 -16 -4 -16 -5 -1 -6 10 0 22 7 27 17 7
14 6 18 -9 18 -14 0 -16 -4 -9 -12z"/>
<path d="M919 612 c11 -8 11 -10 0 -15 -10 -4 -8 -6 4 -6 21 -1 18 21 -4 27
-12 3 -12 2 0 -6z"/>
<path d="M60 560 c0 -5 5 -10 12 -10 6 0 3 -7 -8 -15 -10 -8 -14 -15 -7 -15
13 0 26 17 29 38 1 6 -4 12 -12 12 -8 0 -14 -4 -14 -10z"/>
<path d="M930 530 c20 -13 33 -13 25 0 -3 6 -14 10 -23 10 -15 0 -15 -2 -2
-10z"/>
<path d="M70 510 c-8 -5 -12 -12 -9 -15 4 -3 12 1 19 10 14 17 11 19 -10 5z"/>
<path d="M920 510 c0 -5 7 -10 16 -10 8 0 12 5 9 10 -3 6 -10 10 -16 10 -5 0
-9 -4 -9 -10z"/>
<path d="M72 474 c-7 -8 -8 -14 -3 -14 10 0 25 19 20 25 -2 1 -10 -3 -17 -11z"/>
<path d="M920 480 c0 -5 7 -10 15 -10 8 0 15 5 15 10 0 6 -7 10 -15 10 -8 0
-15 -4 -15 -10z"/>
<path d="M917 453 c-4 -3 -2 -12 3 -18 8 -9 6 -14 -5 -19 -8 -3 -15 -10 -15
-15 0 -21 29 2 39 30 8 22 7 29 -3 29 -7 0 -16 -3 -19 -7z"/>
<path d="M76 435 c-3 -8 -1 -15 4 -15 6 0 10 7 10 15 0 8 -2 15 -4 15 -2 0 -6
-7 -10 -15z"/>
<path d="M80 395 c0 -8 5 -15 11 -15 5 0 8 4 5 9 -4 5 0 12 6 14 8 3 6 6 -4 6
-10 1 -18 -6 -18 -14z"/>
<path d="M100 350 c0 -5 5 -10 11 -10 5 0 7 5 4 10 -3 6 -8 10 -11 10 -2 0 -4
-4 -4 -10z"/>
<path d="M115 320 c-16 -7 -17 -9 -3 -9 9 -1 20 4 23 9 7 11 7 11 -20 0z"/>
<path d="M134 294 c-18 -14 -18 -15 4 -4 12 6 22 13 22 15 0 8 -5 6 -26 -11z"/>
<path d="M856 297 c3 -10 9 -15 12 -12 3 3 0 11 -7 18 -10 9 -11 8 -5 -6z"/>
<path d="M150 271 c0 -6 5 -13 10 -16 6 -3 10 1 10 9 0 9 -4 16 -10 16 -5 0
-10 -4 -10 -9z"/>
<path d="M840 259 c0 -5 5 -7 10 -4 6 3 10 8 10 11 0 2 -4 4 -10 4 -5 0 -10
-5 -10 -11z"/>
<path d="M304 95 c-3 -8 -4 -20 -2 -27 3 -7 7 -1 10 15 6 29 1 36 -8 12z"/>
<path d="M510 84 c0 -8 5 -12 10 -9 6 4 8 11 5 16 -9 14 -15 11 -15 -7z"/>
<path d="M693 93 c-7 -3 -13 -9 -13 -14 0 -6 4 -8 9 -5 5 4 11 1 13 -6 3 -8 7
-6 11 5 7 18 -2 27 -20 20z"/>
<path d="M320 79 c0 -6 6 -9 14 -6 8 3 17 1 20 -6 2 -7 5 -4 5 6 1 11 -6 17
-19 17 -11 0 -20 -5 -20 -11z"/>
<path d="M370 80 c0 -16 33 -25 38 -11 4 11 6 11 13 0 7 -11 9 -10 9 4 0 12
-8 17 -30 17 -16 0 -30 -5 -30 -10z"/>
<path d="M465 80 c3 -5 8 -10 11 -10 2 0 4 5 4 10 0 6 -5 10 -11 10 -5 0 -7
-4 -4 -10z"/>
<path d="M491 74 c0 -11 3 -14 6 -6 3 7 2 16 -1 19 -3 4 -6 -2 -5 -13z"/>
<path d="M566 78 c3 -4 12 -8 20 -8 8 0 12 -4 9 -10 -3 -5 -1 -10 4 -10 6 0
11 7 11 15 0 13 4 14 20 5 15 -8 20 -8 20 3 0 9 -14 13 -45 13 -24 1 -42 -3
-39 -8z"/>
<path d="M423 33 c42 -2 112 -2 155 0 42 1 7 3 -78 3 -85 0 -120 -2 -77 -3z"/>
</g>
</svg>
